<svg width="40" height="40" viewBox="0 0 40 40" fill="none" xmlns="http://www.w3.org/2000/svg">
<g clip-path="url(#clip0_58_42)">
<path d="M19.9998 39.9994C31.0453 39.9994 39.9994 31.0453 39.9994 19.9998C39.9994 8.95434 31.0453 0.000213623 19.9998 0.000213623C8.95437 0.000213623 0.000244141 8.95434 0.000244141 19.9998C0.000244141 31.0453 8.95437 39.9994 19.9998 39.9994Z" fill="#290000"/>
<path fill-rule="evenodd" clip-rule="evenodd" d="M19.9997 18.3431L24.9686 13.3742C25.4267 12.9161 26.1655 12.9128 26.626 13.3733C27.0832 13.8305 27.0857 14.5702 26.6252 15.0307L21.6563 19.9997L26.6252 24.9686C27.0832 25.4266 27.0866 26.1655 26.626 26.626C26.1688 27.0832 25.4291 27.0857 24.9686 26.6252L19.9997 21.6562L15.0308 26.6252C14.5727 27.0832 13.8339 27.0865 13.3734 26.626C12.9161 26.1688 12.9137 25.4291 13.3742 24.9686L18.3431 19.9997L13.3742 15.0307C12.9161 14.5727 12.9128 13.8339 13.3734 13.3733C13.8306 12.9161 14.5702 12.9136 15.0308 13.3742L19.9997 18.3431Z" fill="white"/>
</g>
<defs>
<clipPath id="clip0_58_42">
<rect width="40" height="40" fill="white"/>
</clipPath>
</defs>
</svg>
