<svg width="40" height="40" viewBox="0 0 40 40" fill="none" xmlns="http://www.w3.org/2000/svg">
<g clip-path="url(#clip0_58_29)">
<path d="M19.9998 39.9992C31.0452 39.9992 39.9994 31.0451 39.9994 19.9996C39.9994 8.95412 31.0452 0 19.9998 0C8.9543 0 0.000183105 8.95412 0.000183105 19.9996C0.000183105 31.0451 8.9543 39.9992 19.9998 39.9992Z" fill="#290000"/>
<path fill-rule="evenodd" clip-rule="evenodd" d="M9.03778 12.8785H23.3283L22.3756 13.8312H9.99048V30.0271H26.1864V17.642L27.1391 16.6893V30.9798H9.03778V12.8785ZM27.3296 11.64L18.0884 20.9289L19.0888 21.9292L28.33 12.6404L29.0445 13.3073L19.6127 22.739L16.4688 23.5012L17.231 20.4049L26.6627 10.9731L27.3296 11.64ZM30.8546 10.8303L29.1874 9.16303C28.9969 8.97249 28.7111 8.97249 28.5205 9.16303L27.4249 10.2586L29.759 12.5927L30.8546 11.4971C30.9976 11.3066 30.9976 11.0208 30.8546 10.8303Z" fill="white"/>
</g>
<defs>
<clipPath id="clip0_58_29">
<rect width="40" height="40" fill="white"/>
</clipPath>
</defs>
</svg>
